<svg xmlns="http://www.w3.org/2000/svg" viewBox="0 0 24 24" fill="none"><path d="M3 5.5C3 4.39543 3.89543 3.5 5 3.5H8C9.10457 3.5 10 4.39543 10 5.5V8.5C10 9.60457 9.10457 10.5 8 10.5H5C3.89543 10.5 3 9.60457 3 8.5V5.5Z" stroke="currentColor" stroke-width="1.5"/><path d="M14 5.5C14 4.39543 14.8954 3.5 16 3.5H19C20.1046 3.5 21 4.39543 21 5.5V8.5C21 9.60457 20.1046 10.5 19 10.5H16C14.8954 10.5 14 9.60457 14 8.5V5.5Z" stroke="currentColor" stroke-width="1.5"/><path d="M3 15.5C3 14.3954 3.89543 13.5 5 13.5H8C9.10457 13.5 10 14.3954 10 15.5V18.5C10 19.6046 9.10457 20.5 8 20.5H5C3.89543 20.5 3 19.6046 3 18.5V15.5Z" stroke="currentColor" stroke-width="1.5"/><path d="M14 15.5C14 14.3954 14.8954 13.5 16 13.5H19C20.1046 13.5 21 14.3954 21 15.5V18.5C21 19.6046 20.1046 20.5 19 20.5H16C14.8954 20.5 14 19.6046 14 18.5V15.5Z" stroke="currentColor" stroke-width="1.5"/></svg>
