<svg xmlns="http://www.w3.org/2000/svg" viewBox="0 0 24 24" fill="none"><path d="M7 9.99936V3.94812C7 3.3736 7 3.08634 6.76959 3.01485C6.26306 2.85769 5.5 3.99902 5.5 3.99902M7 9.99936H5.5M7 9.99936H8.5" stroke="currentColor" stroke-linecap="round" stroke-linejoin="round" stroke-width="1.5"/><path d="M9 17.4991V15.7491C9 14.9242 9 14.5117 8.70711 14.2554C8.41421 13.9991 7.94281 13.9991 7 13.9991C6.05719 13.9991 5.58579 13.9991 5.29289 14.2554C5 14.5117 5 14.9242 5 15.7491C5 16.5741 5 16.9866 5.29289 17.2429C5.58579 17.4991 6.05719 17.4991 7 17.4991H9ZM9 17.4991V18.3741C9 19.6116 9 20.2303 8.56066 20.6147C8.12132 20.9991 7.41421 20.9991 6 20.9991H5" stroke="currentColor" stroke-linecap="round" stroke-linejoin="round" stroke-width="1.5"/><path d="M16.5 3.99915V19.9991M16.5 3.99915C15.7998 3.99915 14.4915 5.99345 14 6.49915M16.5 3.99915C17.2002 3.99915 18.5085 5.99345 19 6.49915" stroke="currentColor" stroke-linecap="round" stroke-linejoin="round" stroke-width="1.5"/></svg>
